<svg width="31" height="18" viewBox="0 0 31 18" fill="none" xmlns="http://www.w3.org/2000/svg">
<path d="M2 7.9C1.39249 7.9 0.9 8.39249 0.9 9C0.9 9.60751 1.39249 10.1 2 10.1V7.9ZM29.7778 9.77782C30.2074 9.34824 30.2074 8.65176 29.7778 8.22218L22.7775 1.22183C22.3479 0.792249 21.6514 0.792249 21.2218 1.22183C20.7922 1.6514 20.7922 2.34788 21.2218 2.77746L27.4444 9L21.2218 15.2225C20.7922 15.6521 20.7922 16.3486 21.2218 16.7782C21.6514 17.2078 22.3479 17.2078 22.7775 16.7782L29.7778 9.77782ZM2 10.1H29V7.9H2V10.1Z" fill="#1D1616"/>
</svg>
