<svg width="48" height="46" viewBox="0 0 48 46" fill="none" xmlns="http://www.w3.org/2000/svg">
<path fill-rule="evenodd" clip-rule="evenodd" d="M42.1593 9.29688C42.56 9.84635 42.9578 10.418 43.321 11.0121L39.7847 12.2297L41.6528 14.0613L42.3713 14.7658L42.1802 14.9479L44.3452 21.2356C45.2812 21.5375 46.1073 22.1087 46.7203 22.8776C47.3333 23.6466 47.7059 24.5793 47.7915 25.559C47.8771 26.5387 47.6719 27.5219 47.2016 28.3855C46.7313 29.2492 46.0167 29.955 45.1473 30.4146L45.1479 30.4778C45.2878 32.2466 44.8358 34.0116 43.8629 35.4954C42.89 36.9791 41.4514 38.0973 39.7736 38.6741L20.8632 45.1855C19.1868 45.7613 17.3666 45.7641 15.6885 45.1933C14.0103 44.6226 12.5692 43.5107 11.5915 42.0322L11.553 41.982C10.5847 42.1568 9.58638 42.042 8.68302 41.652C7.77966 41.262 7.01145 40.6142 6.4746 39.7896C5.93774 38.965 5.65612 38.0004 5.66499 37.0165C5.67387 36.0325 5.97285 35.0731 6.52449 34.2584L4.32365 27.8667L3.06229 26.6299L2.35325 25.9222L3.06097 25.2132L3.55246 24.7055L0.857734 25.6334C0.294058 20.6117 1.39908 15.5442 4.00221 11.2131C6.60533 6.88203 10.5618 3.52828 15.2607 1.66965C19.9597 -0.188979 25.1398 -0.449121 30.0013 0.929386C34.8628 2.30789 39.1353 5.24838 42.1593 9.29688V9.29688ZM7.9964 23.1753C7.85213 23.2244 7.72096 23.3057 7.61293 23.4131L5.18971 25.8974L6.61398 27.3001L7.63774 26.2496C7.96427 25.9157 8.36424 25.6627 8.8058 25.5106C9.24736 25.3586 9.71832 25.3118 10.1812 25.3738L12.6194 25.6976C12.7743 25.7187 12.932 25.7032 13.0798 25.6523C13.2275 25.6014 13.3613 25.5166 13.4704 25.4046L15.2019 23.645C15.5284 23.3112 15.9284 23.0581 16.3699 22.9061C16.8115 22.7541 17.2825 22.7072 17.7453 22.7693L20.1836 23.0931C20.3385 23.1141 20.4961 23.0986 20.6439 23.0477C20.7917 22.9968 20.9255 22.912 21.0346 22.8001L22.766 21.0405C23.0926 20.7066 23.4925 20.4536 23.9341 20.3016C24.3757 20.1495 24.8466 20.1027 25.3095 20.1647L27.7477 20.4885C27.8952 20.5088 28.0453 20.4958 28.1871 20.4506C28.3289 20.4055 28.4588 20.3292 28.5674 20.2275L30.877 18.089C31.1836 17.8042 31.5464 17.5867 31.9421 17.4504C32.3378 17.3142 32.7577 17.2622 33.1746 17.2979L36.3112 17.5611C36.4576 17.5734 36.605 17.5533 36.7428 17.5022C36.8806 17.4511 37.0054 17.3702 37.1084 17.2654L39.5349 14.7906L38.1106 13.3879L36.9991 14.5215C36.6894 14.8379 36.3135 15.0817 35.8983 15.2356C35.4832 15.3895 35.0392 15.4497 34.5981 15.4117L31.5786 15.1505C31.4411 15.1373 31.3023 15.1526 31.1711 15.1957L31.1616 15.1989C31.0317 15.2458 30.9129 15.3191 30.8127 15.4142L28.5846 17.4823C28.2604 17.7838 27.8735 18.0098 27.4516 18.1441C27.0297 18.2784 26.5834 18.3176 26.1445 18.259L23.5954 17.9205C23.4405 17.8984 23.2825 17.9129 23.1341 17.963L23.1247 17.9662C22.9804 18.0153 22.8493 18.0966 22.7412 18.204L21.0163 19.9825C20.6897 20.3164 20.2898 20.5694 19.8482 20.7215C19.4066 20.8735 18.9357 20.9204 18.4728 20.8583L16.0346 20.5345C15.8796 20.5124 15.7216 20.5269 15.5733 20.577L15.5638 20.5802C15.4195 20.6293 15.2884 20.7106 15.1803 20.818L13.4521 22.5871C13.1256 22.9209 12.7256 23.174 12.2841 23.326C11.8425 23.4781 11.3715 23.5249 10.9087 23.4629L8.47041 23.139C8.31543 23.1169 8.15743 23.1315 8.00911 23.1815L7.99965 23.1848L7.9964 23.1753ZM7.34526 21.2843L2.71222 22.8796C2.75006 18.5367 4.13279 14.3123 6.67017 10.7877C9.20754 7.26297 12.7748 4.61122 16.8812 3.19727C20.9876 1.78333 25.4313 1.67669 29.6008 2.89201C33.7703 4.10734 37.4607 6.58492 40.1642 9.98383L38.1881 10.6643L38.089 10.5609L37.8855 10.7684L7.33581 21.2876L7.34526 21.2843ZM38.5421 18.6649L39.6066 17.5792L40.8358 17.1559L41.4869 19.047L7.44828 30.7674L7.07387 29.6801L7.34 29.4086L8.40452 28.3229L10.8534 27.4797L12.3607 27.6799C12.8236 27.7419 13.2945 27.6951 13.7361 27.543C14.1776 27.391 14.5776 27.138 14.9041 26.8041L15.9687 25.7184L18.4176 24.8751L19.9249 25.0753C20.3877 25.1374 20.8587 25.0905 21.3002 24.9385C21.7418 24.7864 22.1418 24.5334 22.4683 24.1995L23.5328 23.1138L25.9817 22.2706L27.489 22.4708C27.9278 22.5294 28.3742 22.4901 28.7961 22.3558C29.2179 22.2215 29.6049 21.9955 29.9291 21.6941L31.2672 20.4507L34.3212 19.3991L36.1411 19.5551C36.5822 19.593 37.0263 19.5329 37.4414 19.379C37.8565 19.2251 38.2324 18.9812 38.5421 18.6649V18.6649ZM9.63115 32.131L26.7078 31.444L40.5969 21.4687L9.63115 32.131ZM9.68661 34.2272L10.0081 34.1165L27.3883 33.4201L41.5222 23.2653L41.8342 23.1579C42.5865 22.8988 43.4109 22.9492 44.1261 23.298C44.8412 23.6468 45.3885 24.2654 45.6475 25.0177C45.9065 25.77 45.8561 26.5944 45.5073 27.3095C45.1585 28.0246 44.5399 28.5719 43.7876 28.831L11.64 39.9003C10.8877 40.1593 10.0633 40.1089 9.3482 39.7601C8.63308 39.4113 8.0858 38.7927 7.82676 38.0404C7.56772 37.2881 7.61814 36.4637 7.96693 35.7486C8.31572 35.0335 8.93431 34.4862 9.68661 34.2272V34.2272ZM13.5676 41.3518C14.3388 42.3223 15.3916 43.0301 16.5814 43.378C17.7712 43.7258 19.0395 43.6967 20.2121 43.2944L39.1224 36.7831C40.2963 36.3795 41.3162 35.6219 42.0414 34.6145C42.7666 33.6071 43.1616 32.3995 43.1718 31.1583L13.5676 41.3518V41.3518Z" fill="#E14255"/>
</svg>
