<svg width="45" height="57" viewBox="0 0 45 57" fill="none" xmlns="http://www.w3.org/2000/svg">
<path fill-rule="evenodd" clip-rule="evenodd" d="M20.9968 0.401383L14.9977 0.506097L15.0675 4.50549L9.06844 4.6102L9.13825 8.60959L3.13916 8.71431L3.3835 22.7122L0.383953 22.7645L0.658819 24.76L4.97673 56.6895L40.9712 56.0613L44.1722 24.0005L44.3773 21.9966L41.3777 22.049L41.1334 8.05112L35.1343 8.15583L35.0645 4.15644L29.0654 4.26115L28.9956 0.261764L20.9968 0.401383ZM39.378 22.0839L39.1686 10.0857L35.1692 10.1555L35.239 14.1549L38.2385 14.1026L38.3782 22.1013L39.378 22.0839ZM36.3785 22.1362L36.2738 16.1372L32.2744 16.207L32.3791 22.2061L36.3785 22.1362ZM30.4841 28.24L30.2049 12.2425L26.2055 12.3123L26.54 31.4794C28.1276 30.7516 29.4782 29.6278 30.4841 28.24ZM24.5513 32.1442L24.136 8.34781L20.1366 8.41762L20.5519 32.214C21.8763 32.4592 23.2364 32.4355 24.5513 32.1442ZM18.5413 31.619L18.2067 12.4519L14.2073 12.5217L14.4865 28.5193C15.5485 29.8845 16.9452 30.9523 18.5413 31.619V31.619ZM12.3821 22.5551L12.2774 16.556L8.27802 16.6258L8.38273 22.6249L12.3821 22.5551ZM6.38304 22.6598L6.24342 14.661L9.24296 14.6087L9.17315 10.6093L5.17376 10.6791L5.38319 22.6773L6.38304 22.6598ZM33.1695 10.1904L33.0997 6.19104L29.1003 6.26085L29.1701 10.2602L32.1697 10.2079L32.2395 14.2073L33.2393 14.1898L33.1695 10.1904ZM27.1704 10.2951L27.0308 2.29636L23.0314 2.36617L23.1012 6.36556L26.1008 6.31321L26.1706 10.3126L27.1704 10.2951ZM21.1015 6.40047L21.0317 2.40108L17.0323 2.47089L17.1719 10.4697L18.1718 10.4522L18.102 6.45283L21.1015 6.40047ZM15.1722 10.5046L15.1024 6.50518L11.103 6.57499L11.2427 14.5738L12.2425 14.5563L12.1727 10.5569L15.1722 10.5046ZM22.59 34.3788C25.4251 34.3288 28.1508 33.2765 30.284 31.4085C32.4172 29.5405 33.82 26.9774 34.2437 24.1738L42.1625 24.0356L39.1566 54.0926L6.72155 54.6588L2.66852 24.725L10.5873 24.5867C11.1086 27.3739 12.6 29.8864 14.7971 31.6788C16.9942 33.4712 19.755 34.4277 22.59 34.3788V34.3788Z" fill="#E14255"/>
</svg>
