<svg width="70" height="39" viewBox="0 0 70 39" fill="none" xmlns="http://www.w3.org/2000/svg">
<path fill-rule="evenodd" clip-rule="evenodd" d="M62.4642 4.95898C61.5217 3.34841 60.1019 2.07063 58.4012 1.30249C56.7006 0.534347 54.8032 0.31383 52.9717 0.671456L11.7434 8.68543C9.91128 9.03994 8.23468 9.95516 6.94561 11.3044C5.65655 12.6537 4.81877 14.3703 4.54822 16.2167C3.09838 16.6263 1.85567 17.5663 1.06703 18.85C0.278389 20.1336 0.00153271 21.667 0.291475 23.1454C0.581417 24.6239 1.41693 25.9391 2.63201 26.8298C3.84709 27.7205 5.35278 28.1215 6.84992 27.9531C6.6318 29.3791 6.76004 30.8367 7.22381 32.2027C7.68757 33.5687 8.47326 34.803 9.51449 35.8014C10.5557 36.7998 11.8219 37.533 13.2062 37.939C14.5904 38.3451 16.0521 38.412 17.4676 38.1342L58.696 30.1203C60.1113 29.8455 61.4399 29.2346 62.5699 28.3392C63.7 27.4438 64.5983 26.29 65.1894 24.975C65.7805 23.6599 66.047 22.2221 65.9664 20.7826C65.8859 19.3431 65.4607 17.944 64.7267 16.7031C66.1779 16.2983 67.4237 15.3625 68.2166 14.0815C69.0096 12.8004 69.2916 11.268 69.0066 9.78858C68.7216 8.3092 67.8904 6.99118 66.6784 6.09641C65.4663 5.20163 63.9619 4.79559 62.4642 4.95898V4.95898ZM53.3533 2.63471L12.125 10.6487C10.8236 10.9006 9.62043 11.5169 8.65554 12.4258C7.69065 13.3347 7.00367 14.4989 6.67453 15.783L60.3303 5.3534C59.5441 4.28613 58.471 3.46403 57.2359 2.98275C56.0008 2.50146 54.6544 2.38077 53.3533 2.63471V2.63471ZM49.146 29.9392C50.0104 28.9124 50.6337 27.7048 50.9699 26.4054C51.3061 25.106 51.3468 23.7477 51.0889 22.4305L49.1257 22.8121C49.4799 24.6345 49.0957 26.523 48.0576 28.0621C47.0194 29.6012 45.4124 30.6649 43.59 31.0192L39.3297 31.8473C40.1941 30.8205 40.8174 29.6129 41.1536 28.3135C41.4899 27.0141 41.5306 25.6558 41.2727 24.3386L39.3094 24.7202C39.6637 26.5426 39.2794 28.4311 38.2413 29.9702C37.2031 31.5093 35.5961 32.573 33.7737 32.9272L29.5134 33.7554C30.3779 32.7285 31.0011 31.521 31.3374 30.2216C31.6736 28.9222 31.7143 27.5639 31.4564 26.2467L29.4931 26.6283C29.8474 28.4507 29.4632 30.3392 28.425 31.8783C27.3869 33.4174 25.7798 34.4811 23.9574 34.8353L17.086 36.171C15.2636 36.5252 13.3751 36.141 11.836 35.1029C10.2969 34.0647 9.23322 32.4577 8.87898 30.6353C8.52474 28.8129 8.90896 26.9244 9.94711 25.3853C10.9853 23.8461 12.5923 22.7825 14.4147 22.4282L55.643 14.4142C57.4654 14.06 59.3539 14.4442 60.8931 15.4824C62.4322 16.5205 63.4959 18.1276 63.8501 19.95C64.2043 21.7724 63.8201 23.6609 62.782 25.2C61.7438 26.7391 60.1368 27.8028 58.3144 28.157L49.146 29.9392ZM14.0331 20.465C12.5809 20.7478 11.2207 21.3843 10.0731 22.3181C8.92555 23.252 8.02587 24.4543 7.45375 25.8187L6.94331 25.9179C5.90193 26.1204 4.82279 25.9008 3.9433 25.3076C3.0638 24.7144 2.45599 23.796 2.25356 22.7547C2.05114 21.7133 2.27069 20.6342 2.86392 19.7547C3.45715 18.8752 4.37546 18.2673 5.41684 18.0649L62.3512 6.998C63.3926 6.79558 64.4717 7.01513 65.3512 7.60836C66.2307 8.20159 66.8385 9.1199 67.041 10.1613C67.2434 11.2026 67.0238 12.2818 66.4306 13.1613C65.8374 14.0408 64.9191 14.6486 63.8777 14.851L63.3672 14.9502C62.3256 13.8995 61.0411 13.1217 59.6272 12.6858C58.2134 12.2499 56.7139 12.1692 55.2614 12.451L14.0331 20.465Z" fill="white"/>
</svg>
