<svg width="111" height="54" viewBox="0 0 111 54" fill="none" xmlns="http://www.w3.org/2000/svg">
<path d="M12.92 42C21.48 42 27.24 36.16 27.24 27.56C27.24 18.92 21.4 13.08 12.76 13.08H3.36V42H12.92ZM12.48 16.68C19.08 16.68 23.16 20.84 23.16 27.56C23.16 34.2 19.08 38.36 12.64 38.36H7.28V16.68H12.48ZM75.9916 22.44V25.6H78.8716V42H82.6316V25.6H87.2716V22.44H82.6316V19.32C82.6316 17.2 83.2716 15.96 85.7116 15.96H87.3916V12.72C86.6316 12.6 85.7916 12.56 85.0716 12.56C81.5116 12.56 78.8716 14.52 78.8716 19.32V22.44H75.9916ZM104.287 22.44V32.76C104.287 36.96 102.407 39.16 98.9669 39.16C96.0869 39.16 94.2869 37.56 94.2869 33.36V22.44H90.5269V34.6C90.5269 39.4 93.0869 42.48 97.6469 42.48C100.527 42.48 103.127 41.08 104.247 39.04L104.647 42H108.007V22.44H104.287Z" fill="#1A1515"/>
<path d="M30.3072 32.2C30.3072 38.24 34.6272 42.48 40.5072 42.48C46.3472 42.48 50.6672 38.24 50.6672 32.2C50.6672 26.16 46.3472 21.92 40.5072 21.92C34.6272 21.92 30.3072 26.16 30.3072 32.2ZM34.1072 32.2C34.1072 28.12 36.7072 25.28 40.5072 25.28C44.2672 25.28 46.9072 28.12 46.9072 32.2C46.9072 36.28 44.2672 39.12 40.5072 39.12C36.7072 39.12 34.1072 36.28 34.1072 32.2ZM53.5494 32.2C53.5494 38.24 57.8694 42.48 63.7494 42.48C69.5894 42.48 73.9094 38.24 73.9094 32.2C73.9094 26.16 69.5894 21.92 63.7494 21.92C57.8694 21.92 53.5494 26.16 53.5494 32.2ZM57.3494 32.2C57.3494 28.12 59.9494 25.28 63.7494 25.28C67.5094 25.28 70.1494 28.12 70.1494 32.2C70.1494 36.28 67.5094 39.12 63.7494 39.12C59.9494 39.12 57.3494 36.28 57.3494 32.2Z" fill="#E14255"/>
<path d="M30 16H74" stroke="#E14255" stroke-width="3.2"/>
</svg>
