<svg width="78" height="38" viewBox="0 0 78 38" fill="none" xmlns="http://www.w3.org/2000/svg">
<path d="M9.044 30C15.036 30 19.068 25.912 19.068 19.892C19.068 13.844 14.98 9.756 8.932 9.756H2.352V30H9.044ZM8.736 12.276C13.356 12.276 16.212 15.188 16.212 19.892C16.212 24.54 13.356 27.452 8.848 27.452H5.096V12.276H8.736ZM21.215 23.14C21.215 27.368 24.239 30.336 28.355 30.336C32.443 30.336 35.467 27.368 35.467 23.14C35.467 18.912 32.443 15.944 28.355 15.944C24.239 15.944 21.215 18.912 21.215 23.14ZM23.875 23.14C23.875 20.284 25.695 18.296 28.355 18.296C30.987 18.296 32.835 20.284 32.835 23.14C32.835 25.996 30.987 27.984 28.355 27.984C25.695 27.984 23.875 25.996 23.875 23.14ZM37.4846 23.14C37.4846 27.368 40.5086 30.336 44.6246 30.336C48.7126 30.336 51.7366 27.368 51.7366 23.14C51.7366 18.912 48.7126 15.944 44.6246 15.944C40.5086 15.944 37.4846 18.912 37.4846 23.14ZM40.1446 23.14C40.1446 20.284 41.9646 18.296 44.6246 18.296C47.2566 18.296 49.1046 20.284 49.1046 23.14C49.1046 25.996 47.2566 27.984 44.6246 27.984C41.9646 27.984 40.1446 25.996 40.1446 23.14ZM53.1941 16.308V18.52H55.2101V30H57.8421V18.52H61.0901V16.308H57.8421V14.124C57.8421 12.64 58.2901 11.772 59.9981 11.772H61.1741V9.504C60.6421 9.42 60.0541 9.392 59.5501 9.392C57.0581 9.392 55.2101 10.764 55.2101 14.124V16.308H53.1941ZM73.0008 16.308V23.532C73.0008 26.472 71.6848 28.012 69.2768 28.012C67.2608 28.012 66.0008 26.892 66.0008 23.952V16.308H63.3688V24.82C63.3688 28.18 65.1608 30.336 68.3528 30.336C70.3688 30.336 72.1888 29.356 72.9728 27.928L73.2528 30H75.6048V16.308H73.0008Z" fill="white"/>
<path d="M21 12H52" stroke="white" stroke-width="2.2"/>
</svg>
