<svg width="41" height="62" viewBox="0 0 41 62" fill="none" xmlns="http://www.w3.org/2000/svg">
<path fill-rule="evenodd" clip-rule="evenodd" d="M16.7034 43.967C18.7788 44.4081 20.9444 44.0067 22.7238 42.8511C24.5032 41.6956 25.7507 39.8804 26.1919 37.8051C26.633 35.7297 26.2316 33.5641 25.076 31.7847C23.9205 30.0052 22.1053 28.7577 20.03 28.3166C17.9546 27.8755 15.789 28.2768 14.0096 29.4324C12.2301 30.588 10.9826 32.4031 10.5415 34.4785C10.1004 36.5539 10.5017 38.7195 11.6573 40.4989C12.8129 42.2783 14.628 43.5258 16.7034 43.967ZM24.2356 37.3893C23.9047 38.9458 22.9691 40.3071 21.6345 41.1738C20.2999 42.0405 18.6757 42.3415 17.1192 42.0107C15.5627 41.6798 14.2013 40.7442 13.3347 39.4096C12.468 38.075 12.1669 36.4508 12.4978 34.8943C12.8286 33.3378 13.7643 31.9764 15.0988 31.1098C16.4334 30.2431 18.0576 29.942 19.6142 30.2729C21.1707 30.6037 22.532 31.5394 23.3987 32.874C24.2654 34.2085 24.5664 35.8327 24.2356 37.3893ZM27.3306 8.39924L27.7464 6.44294L35.5716 8.10624L36.819 2.23735L27.0376 0.158234C25.9999 -0.0623325 24.9171 0.13835 24.0274 0.716139C23.1376 1.29393 22.5139 2.20149 22.2933 3.23918L20.2142 13.0207L6.52014 10.1099L4.38756 13.746L3.31638 15.563L5.45852 16.0183L0.868793 55.9363L26.3006 61.342L38.3438 23.0083L40.486 23.4636L40.2465 21.368L39.7772 17.1789L26.0831 14.2681L27.3306 8.39924ZM24.2496 3.655L22.1705 13.4365L24.1268 13.8523L26.2059 4.07082L34.0311 5.73412L34.4469 3.77782L26.6217 2.11453C26.1029 2.00425 25.5615 2.10459 25.1166 2.39348C24.6718 2.68238 24.3599 3.13616 24.2496 3.655ZM23.711 15.8086L37.9528 18.8358L38.1923 20.9314L6.44167 14.1826L7.51285 12.3656L23.711 15.8086ZM36.3778 22.5904L7.4246 16.4362L3.06484 54.3584L24.9362 59.0073L36.3778 22.5904Z" fill="white"/>
</svg>
