<svg width="66" height="46" viewBox="0 0 66 46" fill="none" xmlns="http://www.w3.org/2000/svg">
<path fill-rule="evenodd" clip-rule="evenodd" d="M35.9056 9.64658C35.658 9.55153 35.3827 9.55874 35.1405 9.66661C34.8982 9.77448 34.7087 9.97419 34.6136 10.2218C34.5186 10.4694 34.5258 10.7446 34.6337 10.9869C34.7415 11.2292 34.9412 11.4187 35.1888 11.5137L37.056 12.2305C37.3036 12.3255 37.5788 12.3183 37.8211 12.2104C38.0634 12.1026 38.2529 11.9029 38.3479 11.6553C38.443 11.4077 38.4358 11.1324 38.3279 10.8902C38.22 10.6479 38.0203 10.4584 37.7727 10.3633L35.9056 9.64658ZM50.4183 24.8578C50.5133 24.6102 50.7028 24.4105 50.9451 24.3026C51.1874 24.1947 51.4626 24.1875 51.7102 24.2826L53.5774 24.9993C53.825 25.0944 54.0247 25.2839 54.1326 25.5262C54.2404 25.7684 54.2477 26.0437 54.1526 26.2913C54.0576 26.5389 53.868 26.7386 53.6258 26.8464C53.3835 26.9543 53.1083 26.9615 52.8607 26.8665L50.9935 26.1497C50.7459 26.0547 50.5462 25.8652 50.4383 25.6229C50.3304 25.3806 50.3232 25.1054 50.4183 24.8578V24.8578ZM35.5563 24.5085C35.3087 24.4135 35.0335 24.4207 34.7912 24.5286C34.5489 24.6364 34.3594 24.8362 34.2644 25.0838C34.1693 25.3314 34.1765 25.6066 34.2844 25.8489C34.3923 26.0911 34.592 26.2807 34.8396 26.3757L36.7067 27.0924C36.9543 27.1875 37.2296 27.1803 37.4718 27.0724C37.7141 26.9645 37.9036 26.7648 37.9987 26.5172C38.0937 26.2696 38.0865 25.9944 37.9787 25.7521C37.8708 25.5098 37.6711 25.3203 37.4235 25.2253L35.5563 24.5085ZM11.8584 16.4829C11.6108 16.3879 11.3356 16.3951 11.0933 16.503C10.851 16.6108 10.6615 16.8105 10.5665 17.0581C10.4714 17.3057 10.4787 17.581 10.5865 17.8232C10.6944 18.0655 10.8941 18.255 11.1417 18.3501L13.0089 19.0668C13.2565 19.1619 13.5317 19.1547 13.774 19.0468C14.0163 18.9389 14.2058 18.7392 14.3008 18.4916C14.3959 18.244 14.3887 17.9688 14.2808 17.7265C14.1729 17.4842 13.9732 17.2947 13.7256 17.1997L11.8584 16.4829ZM15.0929 22.0091C14.8453 21.914 14.5701 21.9212 14.3278 22.0291C14.0855 22.137 13.896 22.3367 13.8009 22.5843C13.7059 22.8319 13.7131 23.1071 13.821 23.3494C13.9288 23.5917 14.1285 23.7812 14.3761 23.8762L16.2433 24.593C16.4909 24.688 16.7661 24.6808 17.0084 24.5729C17.2507 24.4651 17.4402 24.2654 17.5352 24.0178C17.6303 23.7702 17.6231 23.495 17.5152 23.2527C17.4073 23.0104 17.2076 22.8209 16.96 22.7258L15.0929 22.0091ZM23.4951 25.2344C23.5901 24.9868 23.7797 24.7871 24.0219 24.6792C24.2642 24.5713 24.5394 24.5641 24.787 24.6592L26.6542 25.3759C26.9018 25.471 27.1015 25.6605 27.2094 25.9028C27.3173 26.1451 27.3245 26.4203 27.2294 26.6679C27.1344 26.9155 26.9449 27.1152 26.7026 27.223C26.4603 27.3309 26.1851 27.3381 25.9375 27.2431L24.0703 26.5263C23.8227 26.4313 23.623 26.2418 23.5151 25.9995C23.4073 25.7572 23.4 25.482 23.4951 25.2344ZM37.1404 31.5435C37.2355 31.2959 37.425 31.0962 37.6673 30.9883C37.9096 30.8804 38.1848 30.8732 38.4324 30.9683L40.2995 31.685C40.5471 31.7801 40.7468 31.9696 40.8547 32.2119C40.9626 32.4541 40.9698 32.7294 40.8748 32.977C40.7797 33.2246 40.5902 33.4243 40.3479 33.5321C40.1056 33.64 39.8304 33.6472 39.5828 33.5522L37.7156 32.8354C37.468 32.7404 37.2683 32.5509 37.1605 32.3086C37.0526 32.0663 37.0454 31.7911 37.1404 31.5435ZM49.0601 33.9768C48.8125 33.8817 48.5373 33.8889 48.295 33.9968C48.0527 34.1047 47.8632 34.3044 47.7682 34.552C47.6731 34.7996 47.6803 35.0748 47.7882 35.3171C47.8961 35.5594 48.0958 35.7489 48.3434 35.8439L50.2106 36.5606C50.4582 36.6557 50.7334 36.6485 50.9757 36.5406C51.218 36.4327 51.4075 36.233 51.5025 35.9854C51.5976 35.7378 51.5903 35.4626 51.4825 35.2203C51.3746 34.978 51.1749 34.7885 50.9273 34.6935L49.0601 33.9768ZM43.8079 16.9646C43.9029 16.717 44.0925 16.5173 44.3347 16.4094C44.577 16.3015 44.8522 16.2943 45.0998 16.3894L46.967 17.1061C47.2146 17.2011 47.4143 17.3907 47.5222 17.6329C47.6301 17.8752 47.6373 18.1504 47.5422 18.398C47.4472 18.6457 47.2577 18.8454 47.0154 18.9532C46.7731 19.0611 46.4979 19.0683 46.2503 18.9733L44.3831 18.2565C44.1355 18.1615 43.9358 17.972 43.8279 17.7297C43.7201 17.4874 43.7129 17.2122 43.8079 16.9646ZM26.0699 10.1556C25.8223 10.0605 25.5471 10.0677 25.3048 10.1756C25.0625 10.2835 24.873 10.4832 24.7779 10.7308C24.6829 10.9784 24.6901 11.2536 24.798 11.4959C24.9058 11.7382 25.1055 11.9277 25.3531 12.0227L27.2203 12.7395C27.4679 12.8345 27.7431 12.8273 27.9854 12.7194C28.2277 12.6116 28.4172 12.4119 28.5122 12.1643C28.6073 11.9167 28.6001 11.6415 28.4922 11.3992C28.3843 11.1569 28.1846 10.9674 27.937 10.8723L26.0699 10.1556ZM29.8795 16.9737C29.9746 16.7261 30.1641 16.5264 30.4064 16.4185C30.6486 16.3106 30.9239 16.3034 31.1715 16.3985L33.0386 17.1152C33.2862 17.2103 33.4859 17.3998 33.5938 17.6421C33.7017 17.8844 33.7089 18.1596 33.6138 18.4072C33.5188 18.6548 33.3293 18.8545 33.087 18.9623C32.8447 19.0702 32.5695 19.0774 32.3219 18.9824L30.4547 18.2656C30.2071 18.1706 30.0074 17.9811 29.8995 17.7388C29.7917 17.4965 29.7845 17.2213 29.8795 16.9737ZM1.16449 22.0182C1.33292 21.5794 1.51068 21.1442 1.6942 20.7219C1.11864 20.1636 0.68583 19.4749 0.432275 18.7142C0.178721 17.9534 0.111865 17.1428 0.237354 16.3508C0.362843 15.5588 0.676992 14.8085 1.1533 14.1634C1.6296 13.5183 2.25409 12.9972 2.97406 12.6441C2.92525 11.619 3.27329 10.6145 3.94586 9.83938C4.61843 9.06424 5.56381 8.57805 6.58554 8.48186C6.63745 7.8252 6.8186 7.18528 7.11857 6.59885C7.41854 6.01242 7.83143 5.49104 8.33352 5.06467C8.83561 4.6383 9.41699 4.31534 10.0443 4.11434C10.6716 3.91334 11.3324 3.83827 11.9888 3.89344C12.5082 3.56681 13.1152 3.40729 13.7281 3.43639C14.1574 2.71593 14.761 2.11503 15.4834 1.689C16.2058 1.26296 17.0237 1.02547 17.8619 0.998396C18.7002 0.971319 19.5317 1.15552 20.2801 1.53405C21.0285 1.91258 21.6696 2.47328 22.1445 3.16453C28.4495 1.48023 35.1261 1.83806 41.2149 4.18662C47.5539 6.61994 52.6262 10.9021 56.0708 16.1876C56.8863 15.9917 57.7379 16.004 58.5474 16.2235C59.3568 16.4429 60.098 16.8625 60.7028 17.4435C61.3076 18.0245 61.7566 18.7483 62.0084 19.5483C62.2601 20.3482 62.3066 21.1987 62.1436 22.0214C62.6225 22.4094 62.9703 22.9357 63.1396 23.5284C63.6643 23.9266 64.1052 24.4246 64.4369 24.9937C64.7685 25.5628 64.9845 26.1918 65.0723 26.8447C65.1601 27.4975 65.1181 28.1612 64.9486 28.7977C64.7791 29.4343 64.4856 30.031 64.0848 30.5537C64.7751 31.311 65.1485 32.3043 65.1279 33.3288C65.1074 34.3533 64.6944 35.3309 63.9742 36.0598C64.2778 36.8038 64.397 37.6101 64.3214 38.4101C64.2458 39.2101 63.9778 39.9799 63.5402 40.6538C63.1026 41.3277 62.5084 41.8857 61.8084 42.2802C61.1084 42.6747 60.3233 42.894 59.5202 42.9193C59.374 43.3559 59.2149 43.7982 59.0465 44.237L58.6881 45.1706L0.806116 22.9518L1.16449 22.0182V22.0182ZM4.50886 15.6219C3.82914 16.6215 3.20868 17.6602 2.65066 18.7326C2.44015 18.3994 2.29737 18.0279 2.23046 17.6395C2.16356 17.2511 2.17384 16.8533 2.26074 16.4689C2.34763 16.0844 2.50942 15.7209 2.73687 15.399C2.96432 15.0771 3.25297 14.8032 3.58632 14.5929C3.8314 14.9869 4.13892 15.3299 4.50886 15.6219ZM7.55197 11.852C6.9041 12.5352 6.28641 13.2514 5.69531 14.01C5.38644 13.7555 5.16101 13.4143 5.04816 13.0303C4.93532 12.6464 4.94025 12.2374 5.06232 11.8563C5.18439 11.4752 5.41799 11.1395 5.7329 10.8925C6.04782 10.6456 6.42957 10.4988 6.8288 10.4712C6.99353 10.9629 7.24153 11.433 7.55197 11.852ZM11.3449 8.44499C10.5325 9.05435 9.75255 9.71898 8.9934 10.413C8.76287 10.029 8.62126 9.59817 8.57898 9.15224C8.53669 8.7063 8.5948 8.25656 8.74904 7.83602C8.90328 7.41549 9.14973 7.03483 9.47031 6.72199C9.79089 6.40914 10.1775 6.17205 10.6016 6.02812C10.5421 6.46079 10.5778 6.90124 10.7062 7.31869C10.8345 7.73615 11.0525 8.12052 11.3449 8.44499V8.44499ZM13.0184 7.26645C13.5243 6.92509 14.0417 6.60957 14.5685 6.29763C14.5472 6.1316 14.4845 5.97358 14.3863 5.83806C14.288 5.70255 14.1573 5.59386 14.0061 5.52198C13.8549 5.4501 13.6881 5.41732 13.521 5.42664C13.3539 5.43596 13.1917 5.48708 13.0495 5.57533C12.9073 5.66358 12.7894 5.78612 12.7069 5.93173C12.6243 6.07733 12.5796 6.24133 12.5768 6.40871C12.5741 6.57608 12.6134 6.74147 12.6912 6.8897C12.7689 7.03793 12.8827 7.16426 13.022 7.25712L13.0184 7.26645ZM20.0715 3.79338C18.8017 4.22714 17.5628 4.74775 16.3714 5.34012C16.2062 4.91494 15.9461 4.53306 15.6111 4.22349C15.8606 3.88308 16.1792 3.59915 16.546 3.39028C16.9128 3.18141 17.3195 3.05228 17.7396 3.01134C18.1597 2.97041 18.5837 3.0186 18.9839 3.15274C19.3842 3.28688 19.7516 3.50396 20.0621 3.7898L20.0715 3.79338ZM58.9053 21.6674C58.4163 20.4299 57.8404 19.2234 57.1906 18.0421C57.6138 18.0361 58.0335 18.1197 58.422 18.2875C58.8106 18.4552 59.1593 18.7032 59.4452 19.0153C59.731 19.3274 59.9477 19.6964 60.0808 20.0982C60.2139 20.4999 60.2605 20.9253 60.2175 21.3463C59.7643 21.3547 59.3189 21.4657 58.9147 21.671L58.9053 21.6674ZM59.6044 23.5853C59.7872 24.1696 59.9606 24.7503 60.1118 25.3332C60.2774 25.3574 60.4464 25.3396 60.6034 25.2815C60.7604 25.2234 60.9003 25.1268 61.0102 25.0006C61.1202 24.8743 61.1967 24.7225 61.2328 24.5591C61.2688 24.3956 61.2633 24.2257 61.2166 24.065C61.17 23.9042 61.0837 23.7577 60.9657 23.639C60.8477 23.5202 60.7019 23.4329 60.5414 23.3852C60.381 23.3375 60.2111 23.3308 60.0474 23.3657C59.8837 23.4007 59.7314 23.4762 59.6044 23.5853V23.5853ZM60.9938 30.3741C60.8941 29.3504 60.7592 28.3345 60.5539 27.3346C60.9896 27.2908 61.4104 27.1522 61.7868 26.9284C62.1632 26.7047 62.4861 26.4012 62.7328 26.0394C62.9517 26.4302 63.0803 26.865 63.1092 27.312C63.1381 27.759 63.0665 28.2068 62.8998 28.6225C62.733 29.0383 62.4753 29.4114 62.1454 29.7145C61.8156 30.0176 61.4221 30.243 60.9938 30.3741V30.3741ZM61.0509 35.2483C61.1027 34.3042 61.1358 33.3528 61.1021 32.408C61.6133 32.3043 62.1121 32.1209 62.5635 31.8657C62.8388 32.1529 63.0221 32.5157 63.0901 32.9076C63.1581 33.2995 63.1077 33.7028 62.9453 34.0659C62.7829 34.4291 62.5159 34.7355 62.1784 34.9461C61.841 35.1567 61.4484 35.262 61.0509 35.2483ZM60.1405 40.8009C60.4435 39.6211 60.6739 38.4348 60.8411 37.2458C61.3114 37.2764 61.7694 37.2272 62.2152 37.0984C62.3243 37.4774 62.3573 37.8742 62.3125 38.2659C62.2676 38.6577 62.1457 39.0367 61.9537 39.3812C61.7617 39.7257 61.5035 40.0288 61.194 40.273C60.8844 40.5173 60.5295 40.6979 60.1499 40.8044L60.1405 40.8009ZM57.5377 42.5867C60.0086 35.4739 59.6162 27.6789 56.4433 20.8502C53.2705 14.0215 47.566 8.69468 40.5363 5.99625C33.5066 3.29781 25.703 3.43937 18.7758 6.39099C11.8487 9.34262 6.34113 14.8729 3.41802 21.8121L57.5283 42.5831L57.5377 42.5867Z" fill="white"/>
</svg>
